<svg width="1200" height="320" viewBox="0 0 1200 320" fill="none" xmlns="http://www.w3.org/2000/svg" role="img" aria-labelledby="title desc">
  <title id="title">Task, session, run, and workspace relationship</title>
  <desc id="desc">A task starts a run inside a session. The run reads and writes files in a persistent workspace.</desc>
  <defs>
    <marker id="arrow" markerWidth="8" markerHeight="8" refX="7" refY="4" orient="auto">
      <path d="M1 1L7 4L1 7" fill="none" stroke="#FE750E" stroke-width="1.5" stroke-linecap="round" stroke-linejoin="round"/>
    </marker>
  </defs>
  <rect width="1200" height="320" rx="14" fill="#FFFFFF"/>

  <rect x="60" y="128" width="220" height="64" rx="12" fill="#FAFAFA" stroke="#D4D4D8" stroke-width="1.5"/>
  <circle cx="92" cy="160" r="6" fill="#FE750E"/>
  <text x="112" y="168" fill="#18181B" font-family="Geist, ui-sans-serif, system-ui, sans-serif" font-size="21" font-weight="600">Task</text>

  <path d="M280 160H356" stroke="#FE750E" stroke-width="2" marker-end="url(#arrow)"/>

  <rect x="370" y="46" width="430" height="228" rx="14" fill="#FAFAFA" stroke="#D4D4D8" stroke-width="1.5"/>
  <text x="398" y="84" fill="#18181B" font-family="Geist, ui-sans-serif, system-ui, sans-serif" font-size="19" font-weight="600">Session</text>
  <rect x="650" y="62" width="120" height="30" rx="7" fill="#F4F4F5"/>
  <text x="710" y="82" fill="#52525B" text-anchor="middle" font-family="Geist Mono, ui-monospace, monospace" font-size="13">session_id</text>

  <rect x="402" y="116" width="366" height="126" rx="12" fill="#FFFFFF" stroke="#FE750E" stroke-width="1.5"/>
  <rect x="422" y="136" width="40" height="40" rx="10" fill="#FFF1E7"/>
  <path d="M436 147L449 156L436 165V147Z" fill="#FE750E"/>
  <text x="482" y="158" fill="#18181B" font-family="Geist, ui-sans-serif, system-ui, sans-serif" font-size="21" font-weight="600">Run</text>
  <text x="482" y="188" fill="#71717A" font-family="Geist, ui-sans-serif, system-ui, sans-serif" font-size="15">conversation + live browser</text>

  <path d="M800 160H886" stroke="#FE750E" stroke-width="2" marker-end="url(#arrow)"/>

  <rect x="900" y="66" width="240" height="188" rx="14" fill="#FAFAFA" stroke="#D4D4D8" stroke-width="1.5"/>
  <text x="928" y="104" fill="#18181B" font-family="Geist, ui-sans-serif, system-ui, sans-serif" font-size="19" font-weight="600">Workspace</text>
  <rect x="928" y="126" width="184" height="36" rx="8" fill="#FFFFFF" stroke="#E4E4E7"/>
  <path d="M945 137H956L960 141H973V151H945V137Z" fill="#FE750E"/>
  <text x="986" y="150" fill="#52525B" font-family="Geist Mono, ui-monospace, monospace" font-size="13">files</text>
  <rect x="928" y="174" width="184" height="36" rx="8" fill="#FFFFFF" stroke="#E4E4E7"/>
  <path d="M945 185H956L960 189H973V199H945V185Z" fill="#A1A1AA"/>
  <text x="986" y="198" fill="#52525B" font-family="Geist Mono, ui-monospace, monospace" font-size="13">scripts</text>
</svg>
